<?xml version="1.0" encoding="utf-8"?>
<!-- Generator: Adobe Illustrator 17.1.0, SVG Export Plug-In . SVG Version: 6.00 Build 0)  -->
<!DOCTYPE svg PUBLIC "-//W3C//DTD SVG 1.0//EN" "http://www.w3.org/TR/2001/REC-SVG-20010904/DTD/svg10.dtd">
<svg xmlns="http://www.w3.org/2000/svg" xmlns:xlink="http://www.w3.org/1999/xlink" version="1.0" id="Layer_1" x="0px" y="0px" width="26px" height="26px" viewBox="0 0 26 26" style="enable-background:new 0 0 26 26;" xml:space="preserve">
<path d="M23.6,14.5c0,6.2-4.9,11.2-11,11.2c-1.9,0-3.6-0.5-5.1-1.3l0.8-1.6c1.3,0.7,2.8,1.1,4.4,1.1c5.1,0,9.3-4.2,9.3-9.4  c0-3.2-1.6-6.1-4.1-7.8v8.9l-3.1-2.9V5.9L10.8,15h3.8v-1.5l3.6,3.4l-3.7,2.9v-1.5H9.4l-3.3,7.5L2,25.7L12.1,5.1  c-4.9,0.3-8.8,4.3-8.8,9.4c0,1.7,0.4,3.3,1.2,4.6l-0.9,1.8c-1.3-1.8-2-4.1-2-6.5c0-6.2,4.9-11.2,11-11.2c0.1,0,0.2,0,0.3,0l1.6-3.2  h3.4v4.6C21.2,6.5,23.6,10.2,23.6,14.5z M14.5,20.8h3.2v-2.8L14.5,20.8z"/>
</svg>
